<?xml version="1.0" encoding="utf-8"?>
<!-- Generator: Adobe Illustrator 25.2.0, SVG Export Plug-In . SVG Version: 6.00 Build 0)  -->
<svg version="1.1" id="Layer_1" xmlns="http://www.w3.org/2000/svg" xmlns:xlink="http://www.w3.org/1999/xlink" x="0px" y="0px"
	 viewBox="0 0 260 162.93" style="enable-background:new 0 0 260 162.93;" xml:space="preserve">
<style type="text/css">
	.st0{fill:#F05323;}
</style>
<g>
	<g>
		<path class="st0" d="M63.62,131.7c-4.5,0-8.37-1.6-11.62-4.8c-3.24-3.2-4.86-7.09-4.86-11.67c0-4.5,1.62-8.35,4.86-11.56
			c3.24-3.2,7.11-4.81,11.62-4.81c4.58,0,8.47,1.6,11.67,4.81c3.2,3.2,4.81,7.06,4.81,11.56c0,4.58-1.6,8.47-4.81,11.67
			C72.08,130.09,68.19,131.7,63.62,131.7z M163.51,162.93H133.3c-13.96,0-23.8-6.94-29.52-20.83L61.1,40.62L77.81,0h6.98
			c30.74,73,50.8,120.9,60.18,143.71c2.06,4.5,5.11,8.26,9.15,11.27c4.04,3.02,7.17,4.52,9.38,4.52V162.93z"/>
	</g>
	<path class="st0" d="M160.11,131.7c-4.5,0-8.37-1.6-11.62-4.8c-3.24-3.2-4.86-7.09-4.86-11.67c0-4.5,1.62-8.35,4.86-11.56
		c3.24-3.2,7.11-4.81,11.62-4.81c4.58,0,8.47,1.6,11.67,4.81c3.2,3.2,4.81,7.06,4.81,11.56c0,4.58-1.6,8.47-4.81,11.67
		C168.58,130.09,164.69,131.7,160.11,131.7z M260,162.93h-30.21c-13.96,0-23.8-6.94-29.52-20.83L157.6,40.62L174.3,0h6.98
		c30.74,73,50.8,120.9,60.19,143.71c2.06,4.5,5.11,8.26,9.15,11.27c4.04,3.02,7.17,4.52,9.38,4.52V162.93z"/>
	<path class="st0" d="M36.96,162.93H0v-3.43c2.29,0,5.45-1.5,9.5-4.52c4.04-3.01,7.09-6.77,9.15-11.27l9.15-22.2
		c0.84-2.14,1.93-3.72,3.26-4.75c1.33-1.03,3.41-1.54,6.24-1.54l-11.79,28.72c-0.3,0.76-0.46,1.56-0.46,2.4
		c0,1.3,0.34,2.67,1.03,4.12c1.07,2.44,2.61,4.54,4.63,6.29c2.02,1.76,4.1,2.67,6.24,2.75V162.93z"/>
</g>
</svg>
