<?xml version="1.0" encoding="utf-8"?>
<!-- Generator: Adobe Illustrator 25.2.0, SVG Export Plug-In . SVG Version: 6.00 Build 0)  -->
<svg version="1.1" id="Layer_1" xmlns="http://www.w3.org/2000/svg" xmlns:xlink="http://www.w3.org/1999/xlink" x="0px" y="0px"
	 viewBox="0 0 88.45 163.12" style="enable-background:new 0 0 88.45 163.12;" xml:space="preserve">
<style type="text/css">
	.st0{fill:#F05323;}
</style>
<g>
	<path class="st0" d="M44.22,163.12c-1.98,0-3.8-0.9-5.01-2.48L1.29,111.01c-1.44-1.88-1.69-4.24-0.67-6.32
		c1.23-2.5,4.11-4.12,7.33-4.12h12.59V11.62C20.55,5.21,25.76,0,32.17,0h24.12c6.41,0,11.62,5.21,11.62,11.62v88.95H80.5
		c3.22,0,6.1,1.62,7.33,4.12c1.02,2.07,0.77,4.44-0.67,6.32l-37.95,49.64c-1.17,1.56-2.98,2.47-4.96,2.48
		C44.25,163.12,44.23,163.12,44.22,163.12z M6.02,107.31c0.01,0.01,0.02,0.03,0.03,0.05L43.98,157c0.02,0.03,0.09,0.12,0.24,0.12
		c0,0,0,0,0,0c0.13,0,0.18-0.07,0.21-0.1l37.97-49.66c0.01-0.02,0.03-0.03,0.03-0.05c-0.13-0.22-0.74-0.74-1.93-0.74H61.91V11.62
		c0-3.1-2.52-5.62-5.62-5.62H32.17c-3.1,0-5.62,2.52-5.62,5.62v94.95H7.96C6.76,106.57,6.15,107.09,6.02,107.31z"/>
</g>
</svg>
