<?xml version="1.0" encoding="utf-8"?>
<!-- Generator: Adobe Illustrator 25.2.0, SVG Export Plug-In . SVG Version: 6.00 Build 0)  -->
<svg version="1.1" id="Layer_1" xmlns="http://www.w3.org/2000/svg" xmlns:xlink="http://www.w3.org/1999/xlink" x="0px" y="0px"
	 viewBox="0 0 260 162.9" style="enable-background:new 0 0 260 162.9;" xml:space="preserve">
<style type="text/css">
	.st0{fill:#FF2641;}
</style>
<g>
	<g>
		<path class="st0" d="M63.6,131.7c-4.5,0-8.4-1.6-11.6-4.8c-3.2-3.2-4.9-7.1-4.9-11.7c0-4.5,1.6-8.3,4.9-11.6
			c3.2-3.2,7.1-4.8,11.6-4.8c4.6,0,8.5,1.6,11.7,4.8c3.2,3.2,4.8,7.1,4.8,11.6c0,4.6-1.6,8.5-4.8,11.7
			C72.1,130.1,68.2,131.7,63.6,131.7z M163.5,162.9h-30.2c-14,0-23.8-6.9-29.5-20.8L61.1,40.6L77.8,0h7
			c30.7,73,50.8,120.9,60.2,143.7c2.1,4.5,5.1,8.3,9.1,11.3c4,3,7.2,4.5,9.4,4.5L163.5,162.9L163.5,162.9z"/>
	</g>
	<path class="st0" d="M160.1,131.7c-4.5,0-8.4-1.6-11.6-4.8c-3.2-3.2-4.9-7.1-4.9-11.7c0-4.5,1.6-8.3,4.9-11.6
		c3.2-3.2,7.1-4.8,11.6-4.8c4.6,0,8.5,1.6,11.7,4.8c3.2,3.2,4.8,7.1,4.8,11.6c0,4.6-1.6,8.5-4.8,11.7
		C168.6,130.1,164.7,131.7,160.1,131.7z M260,162.9h-30.2c-14,0-23.8-6.9-29.5-20.8L157.6,40.6L174.3,0h7
		c30.7,73,50.8,120.9,60.2,143.7c2.1,4.5,5.1,8.3,9.1,11.3c4,3,7.2,4.5,9.4,4.5V162.9z"/>
	<path class="st0" d="M37,162.9H0v-3.4c2.3,0,5.4-1.5,9.5-4.5c4-3,7.1-6.8,9.1-11.3l9.1-22.2c0.8-2.1,1.9-3.7,3.3-4.8
		s3.4-1.5,6.2-1.5l-11.8,28.7c-0.3,0.8-0.5,1.6-0.5,2.4c0,1.3,0.3,2.7,1,4.1c1.1,2.4,2.6,4.5,4.6,6.3c2,1.8,4.1,2.7,6.2,2.8
		L37,162.9L37,162.9z"/>
</g>
</svg>
